# xmcd
#
# Track frame offsets:
#	150
#	17438
#	38039
#	59427
#	76419
#	88253
#	109545
#	126919
#	142968
#	166179
#	185575
#
# Disc length: 2814 seconds
#
# Revision: 2
# Processed by: cddbd v1.5.2PL0 Copyright (c) Steve Scherf et al.
# Submitted via: dBpowerAMP V4.0
#
DISCID=880afc0b
DTITLE=VARIOS - En Tu Fiesta Me Colé - Homenaje A Mecano CD 1
DYEAR=2005
DGENRE=blues
TTITLE0=DESPISTADOS - Una Rosa Es Una Rosa
TTITLE1=LOS PECES - Cruz De Navajas
TTITLE2=NO SE LO DIGAS A MAMA
TTITLE3=TERCERA REPUBLICA - Hoy No Me Puedo Levantar
TTITLE4=CECILIA ANN - LOS AMANTES
TTITLE5=ELA - Mujer Contra Mujer
TTITLE6=PAULINA EN LA PLATA - Aire
TTITLE7=LOS ACUSICAS - No Es Serio Este Cementerio
TTITLE8=CHICO Y CHICA - Japón
TTITLE9=FLORES RARAS - Ay, Qué Pesado
TTITLE10=SYBEL - Naturaleza Muerta
EXTD=
EXTT0=
EXTT1=
EXTT2=
EXTT3=
EXTT4=
EXTT5=
EXTT6=
EXTT7=
EXTT8=
EXTT9=
EXTT10=
PLAYORDER=
